<svg width="200" height="40" viewBox="0 0 200 40" fill="none" xmlns="http://www.w3.org/2000/svg">
<path d="M112.45 21.25H106.3C105.9 21.25 105.6 21.3 105.6 21.7V25.45C105.6 25.85 105.9 26.15 106.3 26.15H112.5C112.9 26.15 113.2 26.45 113.2 26.85V27C113.2 27.4 112.9 27.7 112.5 27.7H104.35C103.95 27.7 103.65 27.4 103.65 27.25V14.2C103.65 13.55 103.95 13.25 104.35 13.25H112.4C112.8 13.25 113.1 13.55 113.1 13.95V14.05C113.1 14.45 112.8 14.75 112.4 14.75H106.3C105.9 14.75 105.6 15.05 105.6 15.45V18.95C105.6 19.35 105.9 19.65 106.3 19.65H112.45C112.85 19.65 113.15 19.95 113.15 20.35V20.45C113.15 20.9 112.85 21.25 112.45 21.25Z" fill="#77CC00"/>
<path d="M116.15 27V13.95C116.15 13.55 116.45 13.25 116.85 13.25H120.55C122.45 13.25 123.95 13.85 125.1 15C126.25 16.15 126.8 17.65 126.8 19.5V21.5C126.8 23.35 126.25 24.85 125.1 26C123.95 27.15 122.45 27.75 120.55 27.75H116.85C116.45 27.7 116.15 27.4 116.15 27ZM118.1 15.5V25.45C118.1 25.85 118.4 26.15 118.8 26.15H120.55C121.9 26.15 122.95 25.7 123.7 24.85C124.45 23.95 124.85 22.85 124.85 21.45V19.45C124.85 18.1 124.45 16.95 123.7 16.1C122.95 15.2 121.85 14.8 120.55 14.8H118.8C118.45 14.75 118.1 15.1 118.1 15.5Z" fill="#77CC00"/>
<path d="M137.3 24H132.25C131.95 24 131.7 24.2 131.55 24.45L130.55 27.25C130.45 27.55 130.2 27.7 129.85 27.7H129.4C128.9 27.7 128.55 27.2 128.75 26.7L133.8 13.65C133.9 13.35 134.15 13.2 134.45 13.2H135.15C135.45 13.2 135.7 13.4 135.8 13.65L140.75 26.7C140.95 27.15 140.6 27.7 140.1 27.7H139.65C139.35 27.7 139.1 27.5 138.95 27.2L137.95 24.4C137.85 24.15 137.6 24 137.3 24ZM133.35 22.35H136.15C136.65 22.35 137 21.85 136.85 21.4L134.8 15.8H134.75L132.7 21.4C132.5 21.85 132.85 22.35 133.35 22.35Z" fill="#77CC00"/>
<path d="M145.75 13.25C146.05 13.25 146.3 13.45 146.4 13.7L150.85 25H150.9L155.35 13.7C155.45 13.4 155.7 13.25 156 13.25H157.3C157.7 13.25 158 13.55 158 13.95V27C158 27.4 157.7 27.7 157.3 27.7H156.8C156.4 27.7 156.1 27.4 156.1 27V22L156.3 16.1H156.25L151.75 27.25C151.65 27.5 151.4 27.7 151.1 27.7H150.75C150.45 27.7 150.2 27.5 150.1 27.25L145.6 16.1H145.55L145.75 21.95V26.95C145.75 27.35 145.45 27.65 145.05 27.65H144.55C144.15 27.65 143.85 27.35 143.85 26.95V13.95C143.85 13.55 144.15 13.25 144.55 13.25H145.75Z" fill="#77CC00"/>
<path d="M169.75 24H164.7C164.4 24 164.15 24.2 164 24.45L163 27.25C162.9 27.55 162.65 27.7 162.3 27.7H161.85C161.35 27.7 161 27.2 161.2 26.7L166.25 13.65C166.35 13.35 166.6 13.2 166.9 13.2H167.6C167.9 13.2 168.15 13.4 168.25 13.65L173.2 26.7C173.4 27.15 173.05 27.7 172.55 27.7H172.1C171.8 27.7 171.55 27.5 171.4 27.2L170.4 24.4C170.35 24.15 170.05 24 169.75 24ZM165.85 22.35H168.65C169.15 22.35 169.5 21.85 169.35 21.4L167.3 15.8H167.25L165.2 21.4C165 21.85 165.35 22.35 165.85 22.35Z" fill="#77CC00"/>
<path d="M178.2 13.25C178.5 13.25 178.75 13.45 178.85 13.7L183.3 25H183.35L187.8 13.7C187.9 13.4 188.15 13.25 188.45 13.25H189.75C190.15 13.25 190.45 13.55 190.45 13.95V27C190.45 27.4 190.15 27.7 189.75 27.7H189.25C188.85 27.7 188.55 27.4 188.55 27V22L188.75 16.1H188.7L184.2 27.25C184.1 27.5 183.85 27.7 183.55 27.7H183.2C182.9 27.7 182.65 27.5 182.55 27.25L178.05 16.1H178L178.2 21.95V26.95C178.2 27.35 177.9 27.65 177.5 27.65H177C176.6 27.65 176.3 27.35 176.3 26.95V13.95C176.3 13.55 176.6 13.25 177 13.25H178.2Z" fill="#77CC00"/>
<path d="M96.9858 25.919C100.008 18.6223 96.5432 10.2571 89.2466 7.23462C81.9499 4.21218 73.5846 7.67712 70.5622 14.9738C67.5398 22.2704 71.0047 30.6357 78.3014 33.6582C85.598 36.6806 93.9633 33.2157 96.9858 25.919Z" fill="#77CC00"/>
<path d="M89.35 14.7499H78.2C77.85 14.7499 77.55 14.4499 77.55 14.0999V13.7999C77.55 13.4499 77.85 13.1499 78.2 13.1499H89.35C89.7 13.1499 90 13.4499 90 13.7999V14.0999C90 14.4999 89.7 14.7499 89.35 14.7499Z" fill="#F4F7FA"/>
<path d="M89.35 21.25H78.2C77.85 21.25 77.55 20.95 77.55 20.6V20.35C77.55 20 77.85 19.7 78.2 19.7H89.35C89.7 19.7 90 20 90 20.35V20.6C90 20.95 89.7 21.25 89.35 21.25Z" fill="#F4F7FA"/>
<path d="M89.35 27.6999H78.2C77.85 27.6999 77.55 27.3999 77.55 27.0499V26.7499C77.55 26.3999 77.85 26.0999 78.2 26.0999H89.35C89.7 26.0999 90 26.3999 90 26.7499V27.0499C90 27.4499 89.7 27.6999 89.35 27.6999Z" fill="#F4F7FA"/>
<path opacity="0.7" d="M81.4501 18H78.2501C77.9001 18 77.6001 17.7 77.6001 17.35V17.1C77.6001 16.75 77.9001 16.45 78.2501 16.45H81.4501C81.8001 16.45 82.1001 16.75 82.1001 17.1V17.35C82.1001 17.7 81.8001 18 81.4501 18Z" fill="#F4F7FA"/>
<path opacity="0.7" d="M81.5501 24.4999H78.3001C77.9501 24.4999 77.6501 24.1999 77.6501 23.8499V23.5499C77.6501 23.1999 77.9501 22.8999 78.3001 22.8999H81.5501C81.9001 22.8999 82.2001 23.1999 82.2001 23.5499V23.8499C82.1501 24.1999 81.9001 24.4999 81.5501 24.4999Z" fill="#F4F7FA"/>
<path d="M11.75 25.2001V27.3001H10.75V21.6001H12.95C13.6 21.6001 14.1 21.7501 14.45 22.1001C14.8 22.4501 15 22.8501 15 23.4001C15 23.9501 14.8 24.4001 14.45 24.7001C14.1 25.0001 13.55 25.1501 12.9 25.1501H11.75V25.2001ZM11.75 24.4001H12.95C13.3 24.4001 13.55 24.3001 13.75 24.1501C13.95 24.0001 14.05 23.7501 14.05 23.4501C14.05 23.1501 13.95 22.9001 13.75 22.7001C13.55 22.5001 13.3 22.4001 13 22.4001H11.8V24.4001H11.75Z" fill="#929497"/>
<path d="M21 24.6C21 25.15 20.9 25.65 20.7 26.05C20.5 26.45 20.25 26.8 19.85 27C19.5 27.25 19.1 27.35 18.6 27.35C18.15 27.35 17.75 27.25 17.35 27C17 26.75 16.7 26.45 16.5 26.05C16.3 25.65 16.2 25.15 16.2 24.6V24.3C16.2 23.75 16.3 23.25 16.5 22.85C16.7 22.45 16.95 22.1 17.35 21.9C17.7 21.65 18.1 21.55 18.6 21.55C19.05 21.55 19.45 21.65 19.85 21.9C20.2 22.1 20.5 22.45 20.7 22.85C20.9 23.25 21 23.75 21 24.3V24.6ZM20 24.3C20 23.65 19.9 23.2 19.65 22.85C19.4 22.5 19.05 22.35 18.65 22.35C18.1999 22.35 17.9 22.5 17.65 22.85C17.4 23.2 17.2999 23.65 17.2999 24.25V24.6C17.2999 25.2 17.4 25.7 17.65 26.05C17.9 26.4 18.2499 26.55 18.65 26.55C19.1 26.55 19.4 26.4 19.65 26.05C19.9 25.7 20 25.2501 20 24.6V24.3Z" fill="#929497"/>
<path d="M27.0499 25.9001L27.95 21.6001H28.95L27.65 27.3001H26.7L25.6 23.1501L24.5 27.3001H23.5L22.2 21.6001H23.2L24.1 25.8501L25.2 21.6001H26.0499L27.0499 25.9001Z" fill="#929497"/>
<path d="M33.55 24.7501H31.2V26.5001H33.95V27.3001H30.25V21.6001H33.95V22.4001H31.25V24.0001H33.6V24.7501H33.55Z" fill="#929497"/>
<path d="M37.4501 25.1001H36.3501V27.3001H35.3501V21.6001H37.3501C38.0001 21.6001 38.5001 21.7501 38.8501 22.0501C39.2001 22.3501 39.4001 22.7501 39.4001 23.3501C39.4001 23.7501 39.3001 24.0501 39.1001 24.3001C38.9001 24.5501 38.6501 24.7501 38.3501 24.9001L39.6501 27.2501V27.3001H38.6001L37.4501 25.1001ZM36.3501 24.3001H37.3501C37.7001 24.3001 37.9501 24.2001 38.1501 24.0501C38.3501 23.9001 38.4501 23.6501 38.4501 23.3501C38.4501 23.0501 38.3501 22.8001 38.2001 22.6501C38.0501 22.5001 37.7501 22.4001 37.4001 22.4001H36.3501V24.3001Z" fill="#929497"/>
<path d="M44.25 24.7501H41.9V26.5001H44.65V27.3001H40.95V21.6001H44.65V22.4001H41.95V24.0001H44.2999V24.7501H44.25Z" fill="#929497"/>
<path d="M46.05 27.3001V21.6001H47.75C48.25 21.6001 48.7 21.7001 49.1 21.9501C49.5 22.1501 49.8 22.5001 50 22.9001C50.2 23.3001 50.3 23.8001 50.3 24.3001V24.6001C50.3 25.1501 50.2 25.6001 50 26.0001C49.8 26.4001 49.5 26.7001 49.1 26.9501C48.7 27.1501 48.25 27.3001 47.75 27.3001H46.05ZM47.05 22.4001V26.5001H47.7001C48.2001 26.5001 48.6001 26.3501 48.9001 26.0001C49.2001 25.6501 49.3 25.2001 49.3 24.6001V24.3001C49.3 23.7001 49.1501 23.2001 48.9001 22.9001C48.6501 22.5501 48.25 22.4001 47.75 22.4001H47.05Z" fill="#929497"/>
<path d="M54.45 27.3001V21.6001H56.4C57.05 21.6001 57.5499 21.7501 57.8499 22.0001C58.1499 22.2501 58.3499 22.6501 58.3499 23.1501C58.3499 23.4001 58.3 23.6501 58.15 23.8501C58 24.0501 57.7999 24.2001 57.5499 24.3501C57.8499 24.4501 58.1 24.6001 58.25 24.8001C58.4 25.0001 58.5 25.3001 58.5 25.6501C58.5 26.2001 58.35 26.6001 58 26.9001C57.65 27.2001 57.1499 27.3501 56.5499 27.3501H54.45V27.3001ZM55.45 24.0001H56.4C56.7 24.0001 56.9499 23.9501 57.0999 23.8001C57.2499 23.6501 57.3499 23.4501 57.3499 23.2001C57.3499 22.9001 57.2499 22.7001 57.0999 22.6001C56.9499 22.5001 56.6999 22.4001 56.3499 22.4001H55.4V24.0001H55.45ZM55.45 24.7501V26.5001H56.5499C56.8499 26.5001 57.0999 26.4001 57.2999 26.2501C57.4499 26.1001 57.5499 25.9001 57.5499 25.6001C57.5499 25.0001 57.25 24.7001 56.65 24.7001H55.45V24.7501Z" fill="#929497"/>
<path d="M61.7501 24.3001L63.0501 21.6001H64.1501L62.2501 25.2001V27.3001H61.2501V25.2001L59.3501 21.6001H60.4501L61.7501 24.3001Z" fill="#929497"/>
</svg>
