<svg width="60" height="60" viewBox="0 0 60 60" fill="none" xmlns="http://www.w3.org/2000/svg">
<rect width="60" height="60" rx="4" fill="white"/>
<path d="M54 39.0627H50.6333C50.2603 30.049 43.2359 22.5894 33.9735 20.911C35.0303 19.9164 35.652 18.5488 35.652 16.9947C35.652 13.8865 33.1654 11.4 30.0573 11.4C26.9491 11.4 24.4626 13.8865 24.4626 16.9947C24.4626 18.5488 25.0842 19.9785 26.141 20.9732C16.8786 22.6516 9.85417 30.1112 9.48119 39.1248H6.00004C6.00004 40.3681 6.00004 39.6843 6.00004 40.3681C6.00004 41.0519 6.00002 40.5764 6.00004 41.6114H54C54 41.047 54 41.2602 54 40.5764C54 39.8926 54 39.6353 54 39.0627ZM30.0573 13.8865C31.7978 13.8865 33.1654 15.2541 33.1654 16.9947C33.1654 18.7353 31.7978 20.1029 30.0573 20.1029C28.3167 20.1029 26.9491 18.7353 26.9491 16.9947C26.9491 15.2541 28.3167 13.8865 30.0573 13.8865ZM30.0573 23.0867C39.7547 23.0867 47.7116 30.2355 48.1468 39.1248H11.9677C12.4029 30.1733 20.3598 23.0867 30.0573 23.0867Z" fill="#F25E3D"/>
<path d="M54 45.8385H6C6 46.2235 6.00004 46.3979 6.00004 47.0817C6.00004 47.7655 6 47.6352 6.00004 48.325H54C54 47.6352 54 47.8484 54 47.1646C54 46.4808 54 46.6941 54 45.8385Z" fill="#F25E3D"/>
</svg>


