<svg width="131" height="101" viewBox="0 0 131 101" fill="none" xmlns="http://www.w3.org/2000/svg">
<g opacity="0.5">
<path d="M130.948 75.8797H121.83C120.82 51.4676 101.795 31.2645 76.7094 26.7188C79.5715 24.025 81.2551 20.3211 81.2551 16.1121C81.2551 7.69418 74.5208 0.959808 66.1028 0.959808C57.6848 0.959808 50.9505 7.69418 50.9505 16.1121C50.9505 20.3211 52.6341 24.1934 55.4962 26.8871C30.4107 31.4328 11.3861 51.636 10.3759 76.0481H0.947809C0.947827 79.4152 0.947827 77.5633 0.947827 79.4152C0.947827 81.2672 0.947754 79.9795 0.947809 82.7824H130.948C130.948 81.254 130.948 81.8314 130.948 79.9795C130.948 78.1275 130.948 77.4304 130.948 75.8797ZM66.1028 7.69418C70.8169 7.69418 74.5208 11.3981 74.5208 16.1121C74.5208 20.8262 70.8169 24.5301 66.1028 24.5301C61.3887 24.5301 57.6848 20.8262 57.6848 16.1121C57.6848 11.3981 61.3887 7.69418 66.1028 7.69418ZM66.1028 32.6114C92.3668 32.6114 113.917 51.9727 115.095 76.0481H17.1103C18.2888 51.8043 39.8388 32.6114 66.1028 32.6114Z" fill="#333130"/>
<path d="M130.948 94.2308H0.947754C0.947754 95.2735 0.947873 95.746 0.947873 97.598C0.947873 99.4499 0.947754 99.097 0.947858 100.965H130.948C130.948 99.097 130.948 99.6745 130.948 97.8225C130.948 95.9706 130.948 96.548 130.948 94.2308Z" fill="#333130"/>
</g>
</svg>
