<svg width="156" height="33" viewBox="0 0 156 33" fill="none" xmlns="http://www.w3.org/2000/svg">
  <g clip-path="url(#clip0_196_4958)">
    <path d="M42.0619 24.4731H39.1117C38.7849 16.6616 32.6294 10.197 24.5129 8.74242C25.439 7.88047 25.9837 6.69528 25.9837 5.34848C25.9837 2.65488 23.8048 0.5 21.0811 0.5C18.3575 0.5 16.1785 2.65488 16.1785 5.34848C16.1785 6.69528 16.7233 7.93434 17.6493 8.7963C9.53282 10.2508 3.37736 16.7155 3.05052 24.5269H1.77479e-05C2.37698e-05 25.6044 2.37698e-05 25.0118 2.37698e-05 25.6044C2.37698e-05 26.197 0 25.7849 1.77479e-05 26.6818H42.0619C42.0619 26.1927 42.0619 26.3775 42.0619 25.7849C42.0619 25.1923 42.0619 24.9693 42.0619 24.4731ZM21.0811 2.65488C22.6064 2.65488 23.8048 3.84007 23.8048 5.34848C23.8048 6.8569 22.6064 8.04209 21.0811 8.04209C19.5559 8.04209 18.3575 6.8569 18.3575 5.34848C18.3575 3.84007 19.5559 2.65488 21.0811 2.65488ZM21.0811 10.6279C29.5789 10.6279 36.5515 16.8232 36.9328 24.5269H5.22944C5.61075 16.7694 12.5833 10.6279 21.0811 10.6279Z" fill="#F25E3D"/>
    <path d="M42.0619 30.3451H0C0 30.6788 3.85157e-05 30.83 3.85157e-05 31.4226C3.85157e-05 32.0152 0 31.9022 3.37719e-05 32.5H42.0619C42.0619 31.9022 42.0619 32.087 42.0619 31.4944C42.0619 30.9018 42.0619 31.0866 42.0619 30.3451Z" fill="#F25E3D"/>
    <!-- Modified Text with adjusted position -->
    <text font-family="French Script MT" font-size="29" font-weight="700" fill="black" x="43" y="23">Recipe Genie</text>
  </g>
  <defs>
    <clipPath id="clip0_196_4958">
      <rect width="156" height="32" fill="white" transform="translate(0 0.5)"/>
    </clipPath>
  </defs>
</svg>

