<svg width="200" height="55" viewBox="0 0 190 40" fill="none" xmlns="http://www.w3.org/2000/svg">
  <g clip-path="url(#clip0_103_27)">
    <path d="M51 29.6245H47.4229C47.0266 20.0475 39.5631 12.1217 29.7219 10.3383C30.8447 9.28157 31.5052 7.8285 31.5052 6.17729C31.5052 2.87485 28.8632 0.23291 25.5608 0.23291C22.2584 0.23291 19.6164 2.87485 19.6164 6.17729C19.6164 7.8285 20.2769 9.34762 21.3997 10.4044C11.5585 12.1877 4.09501 20.1135 3.69872 29.6906H-8.99831e-06C-1.69674e-06 31.0116 -1.69674e-06 30.285 -1.69674e-06 31.0116C-1.69674e-06 31.7381 -3.05176e-05 31.2329 -8.99831e-06 32.3325H51C51 31.7329 51 31.9594 51 31.2329C51 30.5064 51 30.2329 51 29.6245ZM25.5608 2.87485C27.4102 2.87485 28.8632 4.32792 28.8632 6.17729C28.8632 8.02665 27.4102 9.47972 25.5608 9.47972C23.7114 9.47972 22.2584 8.02665 22.2584 6.17729C22.2584 4.32792 23.7114 2.87485 25.5608 2.87485ZM25.5608 12.65C35.8644 12.65 44.3186 20.2456 44.781 29.6906H6.34066C6.803 20.1796 15.2572 12.65 25.5608 12.65Z" fill="#F25E3D"/>
    <path d="M51 36.8238H-4.57764e-05C-4.57764e-05 37.2329 9.23872e-07 37.4183 9.23872e-07 38.1448C9.23872e-07 38.8713 -4.57764e-05 38.7329 -4.82798e-06 39.4658H51C51 38.7329 51 38.9594 51 38.2329C51 37.5064 51 37.7329 51 36.8238Z" fill="#F25E3D"/>
    <!-- Text change below -->
    <text font-family="French Script MT" font-size="36" font-weight="590" fill="white">
      <tspan x="52" y="29">Recipe Genie</tspan>
    </text>
  </g>
  <defs>
    <clipPath id="clip0_103_27">
      <rect width="200" height="55" fill="white" transform="translate(0 0.23291)"/>
    </clipPath>
  </defs>
</svg>
